<mxfile host="app.diagrams.net" modified="2021-02-28T15:20:04.173Z" agent="5.0 (Windows)" etag="tBeIAOg-SE38NjuOlcla" version="14.4.3" type="github">
  <diagram id="8jEPSXA4Bqcl1U0WVNtQ" name="Page-1">
    <mxGraphModel dx="920" dy="876" grid="1" gridSize="10" guides="1" tooltips="1" connect="1" arrows="1" fold="1" page="1" pageScale="1" pageWidth="827" pageHeight="1169" math="0" shadow="0">
      <root>
        <mxCell id="0" />
        <mxCell id="1" parent="0" />
        <mxCell id="JLESeSKr6Xy90Z8o2hqb-1" value="" style="ellipse;whiteSpace=wrap;html=1;aspect=fixed;" vertex="1" parent="1">
          <mxGeometry x="334" y="110" width="80" height="80" as="geometry" />
        </mxCell>
        <mxCell id="JLESeSKr6Xy90Z8o2hqb-2" value="Начало" style="text;html=1;strokeColor=none;fillColor=none;align=center;verticalAlign=middle;whiteSpace=wrap;rounded=0;" vertex="1" parent="1">
          <mxGeometry x="351" y="140" width="46" height="20" as="geometry" />
        </mxCell>
        <mxCell id="JLESeSKr6Xy90Z8o2hqb-3" value="" style="endArrow=classic;html=1;exitX=0.5;exitY=1;exitDx=0;exitDy=0;" edge="1" parent="1" source="JLESeSKr6Xy90Z8o2hqb-1" target="JLESeSKr6Xy90Z8o2hqb-4">
          <mxGeometry width="50" height="50" relative="1" as="geometry">
            <mxPoint x="370" y="270" as="sourcePoint" />
            <mxPoint x="374" y="240" as="targetPoint" />
          </mxGeometry>
        </mxCell>
        <mxCell id="JLESeSKr6Xy90Z8o2hqb-4" value="" style="rounded=1;whiteSpace=wrap;html=1;" vertex="1" parent="1">
          <mxGeometry x="314" y="230" width="120" height="60" as="geometry" />
        </mxCell>
        <mxCell id="JLESeSKr6Xy90Z8o2hqb-5" value="&lt;font style=&quot;font-size: 16px&quot;&gt;Объявление a, b и с&lt;/font&gt;" style="text;html=1;strokeColor=none;fillColor=none;align=center;verticalAlign=middle;whiteSpace=wrap;rounded=0;" vertex="1" parent="1">
          <mxGeometry x="319" y="230" width="110" height="60" as="geometry" />
        </mxCell>
        <mxCell id="JLESeSKr6Xy90Z8o2hqb-6" value="" style="endArrow=classic;html=1;exitX=0.5;exitY=1;exitDx=0;exitDy=0;" edge="1" parent="1" source="JLESeSKr6Xy90Z8o2hqb-5">
          <mxGeometry width="50" height="50" relative="1" as="geometry">
            <mxPoint x="370" y="300" as="sourcePoint" />
            <mxPoint x="374" y="330" as="targetPoint" />
          </mxGeometry>
        </mxCell>
        <mxCell id="JLESeSKr6Xy90Z8o2hqb-7" value="" style="rhombus;whiteSpace=wrap;html=1;" vertex="1" parent="1">
          <mxGeometry x="334" y="330" width="80" height="80" as="geometry" />
        </mxCell>
        <mxCell id="JLESeSKr6Xy90Z8o2hqb-8" value="true" style="text;html=1;strokeColor=none;fillColor=none;align=center;verticalAlign=middle;whiteSpace=wrap;rounded=0;" vertex="1" parent="1">
          <mxGeometry x="140" y="360" width="40" height="20" as="geometry" />
        </mxCell>
        <mxCell id="JLESeSKr6Xy90Z8o2hqb-9" value="&lt;font style=&quot;font-size: 16px&quot;&gt;a &amp;gt; b&lt;/font&gt;" style="text;html=1;strokeColor=none;fillColor=none;align=center;verticalAlign=middle;whiteSpace=wrap;rounded=0;" vertex="1" parent="1">
          <mxGeometry x="354" y="360" width="40" height="20" as="geometry" />
        </mxCell>
        <mxCell id="JLESeSKr6Xy90Z8o2hqb-10" value="false" style="text;html=1;strokeColor=none;fillColor=none;align=center;verticalAlign=middle;whiteSpace=wrap;rounded=0;" vertex="1" parent="1">
          <mxGeometry x="571" y="360" width="40" height="20" as="geometry" />
        </mxCell>
        <mxCell id="JLESeSKr6Xy90Z8o2hqb-11" value="" style="endArrow=none;html=1;entryX=0;entryY=0.5;entryDx=0;entryDy=0;exitX=1;exitY=0.5;exitDx=0;exitDy=0;" edge="1" parent="1" source="JLESeSKr6Xy90Z8o2hqb-7" target="JLESeSKr6Xy90Z8o2hqb-10">
          <mxGeometry width="50" height="50" relative="1" as="geometry">
            <mxPoint x="464" y="370" as="sourcePoint" />
            <mxPoint x="470" y="290" as="targetPoint" />
          </mxGeometry>
        </mxCell>
        <mxCell id="JLESeSKr6Xy90Z8o2hqb-12" value="" style="endArrow=none;html=1;entryX=1;entryY=0.5;entryDx=0;entryDy=0;exitX=0;exitY=0.5;exitDx=0;exitDy=0;" edge="1" parent="1" source="JLESeSKr6Xy90Z8o2hqb-7" target="JLESeSKr6Xy90Z8o2hqb-8">
          <mxGeometry width="50" height="50" relative="1" as="geometry">
            <mxPoint x="274" y="370" as="sourcePoint" />
            <mxPoint x="360" y="290" as="targetPoint" />
          </mxGeometry>
        </mxCell>
        <mxCell id="JLESeSKr6Xy90Z8o2hqb-13" value="" style="endArrow=classic;html=1;" edge="1" parent="1">
          <mxGeometry width="50" height="50" relative="1" as="geometry">
            <mxPoint x="160" y="390" as="sourcePoint" />
            <mxPoint x="160" y="440" as="targetPoint" />
          </mxGeometry>
        </mxCell>
        <mxCell id="JLESeSKr6Xy90Z8o2hqb-14" value="" style="endArrow=classic;html=1;" edge="1" parent="1">
          <mxGeometry width="50" height="50" relative="1" as="geometry">
            <mxPoint x="590.76" y="390" as="sourcePoint" />
            <mxPoint x="590.76" y="440" as="targetPoint" />
          </mxGeometry>
        </mxCell>
        <mxCell id="JLESeSKr6Xy90Z8o2hqb-15" value="" style="rhombus;whiteSpace=wrap;html=1;" vertex="1" parent="1">
          <mxGeometry x="120" y="440" width="80" height="80" as="geometry" />
        </mxCell>
        <mxCell id="JLESeSKr6Xy90Z8o2hqb-16" value="" style="rhombus;whiteSpace=wrap;html=1;" vertex="1" parent="1">
          <mxGeometry x="550" y="440" width="80" height="80" as="geometry" />
        </mxCell>
        <mxCell id="JLESeSKr6Xy90Z8o2hqb-18" value="&lt;div style=&quot;font-size: 15px&quot;&gt;&lt;font style=&quot;font-size: 15px&quot;&gt;a &amp;gt; c&lt;/font&gt;&lt;/div&gt;" style="text;html=1;strokeColor=none;fillColor=none;align=center;verticalAlign=middle;whiteSpace=wrap;rounded=0;" vertex="1" parent="1">
          <mxGeometry x="140" y="470" width="40" height="20" as="geometry" />
        </mxCell>
        <mxCell id="JLESeSKr6Xy90Z8o2hqb-19" value="&lt;font style=&quot;font-size: 15px&quot;&gt;b &amp;gt; c&lt;/font&gt;" style="text;html=1;strokeColor=none;fillColor=none;align=center;verticalAlign=middle;whiteSpace=wrap;rounded=0;" vertex="1" parent="1">
          <mxGeometry x="570" y="470" width="40" height="20" as="geometry" />
        </mxCell>
        <mxCell id="JLESeSKr6Xy90Z8o2hqb-21" value="" style="endArrow=none;html=1;exitX=1;exitY=0.5;exitDx=0;exitDy=0;" edge="1" parent="1" source="JLESeSKr6Xy90Z8o2hqb-15">
          <mxGeometry width="50" height="50" relative="1" as="geometry">
            <mxPoint x="310" y="470" as="sourcePoint" />
            <mxPoint x="260" y="480" as="targetPoint" />
          </mxGeometry>
        </mxCell>
        <mxCell id="JLESeSKr6Xy90Z8o2hqb-22" value="" style="endArrow=none;html=1;exitX=1;exitY=0.5;exitDx=0;exitDy=0;" edge="1" parent="1">
          <mxGeometry width="50" height="50" relative="1" as="geometry">
            <mxPoint x="490" y="479.66" as="sourcePoint" />
            <mxPoint x="550" y="479.66" as="targetPoint" />
          </mxGeometry>
        </mxCell>
        <mxCell id="JLESeSKr6Xy90Z8o2hqb-23" value="" style="endArrow=none;html=1;exitX=1;exitY=0.5;exitDx=0;exitDy=0;" edge="1" parent="1">
          <mxGeometry width="50" height="50" relative="1" as="geometry">
            <mxPoint x="630" y="479.6600000000001" as="sourcePoint" />
            <mxPoint x="690" y="479.6600000000001" as="targetPoint" />
          </mxGeometry>
        </mxCell>
        <mxCell id="JLESeSKr6Xy90Z8o2hqb-24" value="" style="endArrow=none;html=1;exitX=1;exitY=0.5;exitDx=0;exitDy=0;" edge="1" parent="1">
          <mxGeometry width="50" height="50" relative="1" as="geometry">
            <mxPoint x="60" y="479.6600000000001" as="sourcePoint" />
            <mxPoint x="120" y="479.6600000000001" as="targetPoint" />
          </mxGeometry>
        </mxCell>
        <mxCell id="JLESeSKr6Xy90Z8o2hqb-50" style="edgeStyle=orthogonalEdgeStyle;rounded=0;orthogonalLoop=1;jettySize=auto;html=1;exitX=0.5;exitY=1;exitDx=0;exitDy=0;entryX=0.5;entryY=0;entryDx=0;entryDy=0;" edge="1" parent="1" source="JLESeSKr6Xy90Z8o2hqb-25" target="JLESeSKr6Xy90Z8o2hqb-30">
          <mxGeometry relative="1" as="geometry" />
        </mxCell>
        <mxCell id="JLESeSKr6Xy90Z8o2hqb-25" value="true" style="text;html=1;strokeColor=none;fillColor=none;align=center;verticalAlign=middle;whiteSpace=wrap;rounded=0;" vertex="1" parent="1">
          <mxGeometry x="20" y="470" width="40" height="20" as="geometry" />
        </mxCell>
        <mxCell id="JLESeSKr6Xy90Z8o2hqb-52" style="edgeStyle=orthogonalEdgeStyle;rounded=0;orthogonalLoop=1;jettySize=auto;html=1;exitX=0.5;exitY=1;exitDx=0;exitDy=0;entryX=0.5;entryY=0;entryDx=0;entryDy=0;" edge="1" parent="1" source="JLESeSKr6Xy90Z8o2hqb-26" target="JLESeSKr6Xy90Z8o2hqb-33">
          <mxGeometry relative="1" as="geometry" />
        </mxCell>
        <mxCell id="JLESeSKr6Xy90Z8o2hqb-26" value="true" style="text;html=1;strokeColor=none;fillColor=none;align=center;verticalAlign=middle;whiteSpace=wrap;rounded=0;" vertex="1" parent="1">
          <mxGeometry x="450" y="470" width="40" height="20" as="geometry" />
        </mxCell>
        <mxCell id="JLESeSKr6Xy90Z8o2hqb-51" style="edgeStyle=orthogonalEdgeStyle;rounded=0;orthogonalLoop=1;jettySize=auto;html=1;exitX=0.5;exitY=1;exitDx=0;exitDy=0;entryX=0.5;entryY=0;entryDx=0;entryDy=0;" edge="1" parent="1" source="JLESeSKr6Xy90Z8o2hqb-27" target="JLESeSKr6Xy90Z8o2hqb-31">
          <mxGeometry relative="1" as="geometry" />
        </mxCell>
        <mxCell id="JLESeSKr6Xy90Z8o2hqb-27" value="false" style="text;html=1;strokeColor=none;fillColor=none;align=center;verticalAlign=middle;whiteSpace=wrap;rounded=0;" vertex="1" parent="1">
          <mxGeometry x="259" y="470" width="40" height="20" as="geometry" />
        </mxCell>
        <mxCell id="JLESeSKr6Xy90Z8o2hqb-53" style="edgeStyle=orthogonalEdgeStyle;rounded=0;orthogonalLoop=1;jettySize=auto;html=1;exitX=0.5;exitY=1;exitDx=0;exitDy=0;entryX=0.5;entryY=0;entryDx=0;entryDy=0;" edge="1" parent="1" source="JLESeSKr6Xy90Z8o2hqb-29" target="JLESeSKr6Xy90Z8o2hqb-34">
          <mxGeometry relative="1" as="geometry" />
        </mxCell>
        <mxCell id="JLESeSKr6Xy90Z8o2hqb-29" value="false" style="text;html=1;strokeColor=none;fillColor=none;align=center;verticalAlign=middle;whiteSpace=wrap;rounded=0;" vertex="1" parent="1">
          <mxGeometry x="690" y="470" width="40" height="20" as="geometry" />
        </mxCell>
        <mxCell id="JLESeSKr6Xy90Z8o2hqb-39" style="edgeStyle=orthogonalEdgeStyle;rounded=0;orthogonalLoop=1;jettySize=auto;html=1;exitX=0.5;exitY=1;exitDx=0;exitDy=0;" edge="1" parent="1" source="JLESeSKr6Xy90Z8o2hqb-30">
          <mxGeometry relative="1" as="geometry">
            <mxPoint x="60" y="640" as="targetPoint" />
          </mxGeometry>
        </mxCell>
        <mxCell id="JLESeSKr6Xy90Z8o2hqb-30" value="" style="rounded=1;whiteSpace=wrap;html=1;" vertex="1" parent="1">
          <mxGeometry y="540" width="120" height="60" as="geometry" />
        </mxCell>
        <mxCell id="JLESeSKr6Xy90Z8o2hqb-40" style="edgeStyle=orthogonalEdgeStyle;rounded=0;orthogonalLoop=1;jettySize=auto;html=1;exitX=0.5;exitY=1;exitDx=0;exitDy=0;" edge="1" parent="1" source="JLESeSKr6Xy90Z8o2hqb-31">
          <mxGeometry relative="1" as="geometry">
            <mxPoint x="278.82352941176464" y="640" as="targetPoint" />
          </mxGeometry>
        </mxCell>
        <mxCell id="JLESeSKr6Xy90Z8o2hqb-31" value="" style="rounded=1;whiteSpace=wrap;html=1;" vertex="1" parent="1">
          <mxGeometry x="219" y="540" width="120" height="60" as="geometry" />
        </mxCell>
        <mxCell id="JLESeSKr6Xy90Z8o2hqb-41" style="edgeStyle=orthogonalEdgeStyle;rounded=0;orthogonalLoop=1;jettySize=auto;html=1;exitX=0.5;exitY=1;exitDx=0;exitDy=0;" edge="1" parent="1" source="JLESeSKr6Xy90Z8o2hqb-33">
          <mxGeometry relative="1" as="geometry">
            <mxPoint x="450.5882352941178" y="640" as="targetPoint" />
          </mxGeometry>
        </mxCell>
        <mxCell id="JLESeSKr6Xy90Z8o2hqb-33" value="" style="rounded=1;whiteSpace=wrap;html=1;" vertex="1" parent="1">
          <mxGeometry x="390" y="540" width="120" height="60" as="geometry" />
        </mxCell>
        <mxCell id="JLESeSKr6Xy90Z8o2hqb-42" style="edgeStyle=orthogonalEdgeStyle;rounded=0;orthogonalLoop=1;jettySize=auto;html=1;exitX=0.5;exitY=1;exitDx=0;exitDy=0;" edge="1" parent="1" source="JLESeSKr6Xy90Z8o2hqb-34">
          <mxGeometry relative="1" as="geometry">
            <mxPoint x="730.5882352941178" y="640" as="targetPoint" />
          </mxGeometry>
        </mxCell>
        <mxCell id="JLESeSKr6Xy90Z8o2hqb-34" value="" style="rounded=1;whiteSpace=wrap;html=1;" vertex="1" parent="1">
          <mxGeometry x="670" y="540" width="120" height="60" as="geometry" />
        </mxCell>
        <mxCell id="JLESeSKr6Xy90Z8o2hqb-35" value="&lt;font style=&quot;font-size: 15px&quot;&gt;Напечатать a&lt;/font&gt;" style="text;html=1;strokeColor=none;fillColor=none;align=center;verticalAlign=middle;whiteSpace=wrap;rounded=0;" vertex="1" parent="1">
          <mxGeometry x="10" y="560" width="100" height="20" as="geometry" />
        </mxCell>
        <mxCell id="JLESeSKr6Xy90Z8o2hqb-36" value="&lt;font style=&quot;font-size: 15px&quot;&gt;Напечатать c&lt;br&gt;&lt;/font&gt;" style="text;html=1;strokeColor=none;fillColor=none;align=center;verticalAlign=middle;whiteSpace=wrap;rounded=0;" vertex="1" parent="1">
          <mxGeometry x="680" y="560" width="100" height="20" as="geometry" />
        </mxCell>
        <mxCell id="JLESeSKr6Xy90Z8o2hqb-37" value="&lt;font style=&quot;font-size: 15px&quot;&gt;Напечатать c&lt;br&gt;&lt;/font&gt;" style="text;html=1;strokeColor=none;fillColor=none;align=center;verticalAlign=middle;whiteSpace=wrap;rounded=0;" vertex="1" parent="1">
          <mxGeometry x="229" y="560" width="100" height="20" as="geometry" />
        </mxCell>
        <mxCell id="JLESeSKr6Xy90Z8o2hqb-38" value="&lt;font style=&quot;font-size: 15px&quot;&gt;Напечатать b&lt;br&gt;&lt;/font&gt;" style="text;html=1;strokeColor=none;fillColor=none;align=center;verticalAlign=middle;whiteSpace=wrap;rounded=0;" vertex="1" parent="1">
          <mxGeometry x="400" y="560" width="100" height="20" as="geometry" />
        </mxCell>
        <mxCell id="JLESeSKr6Xy90Z8o2hqb-43" value="" style="endArrow=none;html=1;" edge="1" parent="1">
          <mxGeometry width="50" height="50" relative="1" as="geometry">
            <mxPoint x="60" y="640" as="sourcePoint" />
            <mxPoint x="730" y="640" as="targetPoint" />
          </mxGeometry>
        </mxCell>
        <mxCell id="JLESeSKr6Xy90Z8o2hqb-44" value="" style="endArrow=classic;html=1;" edge="1" parent="1">
          <mxGeometry width="50" height="50" relative="1" as="geometry">
            <mxPoint x="370" y="640" as="sourcePoint" />
            <mxPoint x="370" y="730" as="targetPoint" />
          </mxGeometry>
        </mxCell>
        <mxCell id="JLESeSKr6Xy90Z8o2hqb-47" value="" style="ellipse;whiteSpace=wrap;html=1;aspect=fixed;" vertex="1" parent="1">
          <mxGeometry x="329" y="730" width="80" height="80" as="geometry" />
        </mxCell>
        <mxCell id="JLESeSKr6Xy90Z8o2hqb-48" value="&lt;div&gt;Конец&lt;/div&gt;" style="text;html=1;strokeColor=none;fillColor=none;align=center;verticalAlign=middle;whiteSpace=wrap;rounded=0;" vertex="1" parent="1">
          <mxGeometry x="346" y="760" width="46" height="20" as="geometry" />
        </mxCell>
      </root>
    </mxGraphModel>
  </diagram>
</mxfile>
